<svg xmlns="http://www.w3.org/2000/svg" xmlns:xlink="http://www.w3.org/1999/xlink" width="500" zoomAndPan="magnify" viewBox="0 0 375 374.999991" height="500" preserveAspectRatio="xMidYMid meet" version="1.0"><defs><g/></defs><rect x="-37.5" width="450" fill="#ffffff" y="-37.499999" height="449.999989" fill-opacity="1"/><rect x="-37.5" width="450" fill="#000000" y="-37.499999" height="449.999989" fill-opacity="1"/><g fill="#ffffff" fill-opacity="1"><g transform="translate(55.839903, 169.733542)"><g><path d="M 12.59375 -1.75 L 12.59375 0 L 0.859375 0 L 0.859375 -1.359375 L 9.6875 -12.296875 L 1 -12.296875 L 1 -14.046875 L 12.34375 -14.046875 L 12.34375 -12.671875 L 3.546875 -1.75 Z M 12.59375 -1.75 "/></g></g></g><g fill="#ffffff" fill-opacity="1"><g transform="translate(85.075811, 169.733542)"><g><path d="M 12.296875 -1.75 L 12.296875 0 L 2.109375 0 L 2.109375 -14.046875 L 12.015625 -14.046875 L 12.015625 -12.296875 L 4.109375 -12.296875 L 4.109375 -7.984375 L 11.15625 -7.984375 L 11.15625 -6.28125 L 4.109375 -6.28125 L 4.109375 -1.75 Z M 12.296875 -1.75 "/></g></g></g><g fill="#ffffff" fill-opacity="1"><g transform="translate(114.572529, 169.733542)"><g><path d="M 11.5 0 L 8.46875 -4.3125 C 8.09375 -4.28125 7.796875 -4.265625 7.578125 -4.265625 L 4.109375 -4.265625 L 4.109375 0 L 2.109375 0 L 2.109375 -14.046875 L 7.578125 -14.046875 C 9.398438 -14.046875 10.832031 -13.609375 11.875 -12.734375 C 12.914062 -11.867188 13.4375 -10.675781 13.4375 -9.15625 C 13.4375 -8.0625 13.171875 -7.132812 12.640625 -6.375 C 12.109375 -5.613281 11.347656 -5.0625 10.359375 -4.71875 L 13.6875 0 Z M 7.515625 -5.984375 C 8.785156 -5.984375 9.753906 -6.253906 10.421875 -6.796875 C 11.097656 -7.347656 11.4375 -8.132812 11.4375 -9.15625 C 11.4375 -10.164062 11.097656 -10.941406 10.421875 -11.484375 C 9.753906 -12.023438 8.785156 -12.296875 7.515625 -12.296875 L 4.109375 -12.296875 L 4.109375 -5.984375 Z M 7.515625 -5.984375 "/></g></g></g><g fill="#ffffff" fill-opacity="1"><g transform="translate(145.212807, 169.733542)"><g><path d="M 8.453125 0.15625 C 7.023438 0.15625 5.742188 -0.148438 4.609375 -0.765625 C 3.472656 -1.390625 2.582031 -2.25 1.9375 -3.34375 C 1.289062 -4.445312 0.96875 -5.671875 0.96875 -7.015625 C 0.96875 -8.367188 1.289062 -9.59375 1.9375 -10.6875 C 2.582031 -11.789062 3.472656 -12.648438 4.609375 -13.265625 C 5.742188 -13.890625 7.023438 -14.203125 8.453125 -14.203125 C 9.847656 -14.203125 11.113281 -13.890625 12.25 -13.265625 C 13.394531 -12.648438 14.285156 -11.796875 14.921875 -10.703125 C 15.566406 -9.609375 15.890625 -8.378906 15.890625 -7.015625 C 15.890625 -5.648438 15.566406 -4.421875 14.921875 -3.328125 C 14.285156 -2.242188 13.394531 -1.390625 12.25 -0.765625 C 11.113281 -0.148438 9.847656 0.15625 8.453125 0.15625 Z M 8.453125 -1.625 C 9.472656 -1.625 10.394531 -1.859375 11.21875 -2.328125 C 12.039062 -2.796875 12.691406 -3.441406 13.171875 -4.265625 C 13.648438 -5.085938 13.890625 -6.003906 13.890625 -7.015625 C 13.890625 -8.035156 13.648438 -8.957031 13.171875 -9.78125 C 12.691406 -10.601562 12.039062 -11.25 11.21875 -11.71875 C 10.394531 -12.1875 9.472656 -12.421875 8.453125 -12.421875 C 7.421875 -12.421875 6.484375 -12.1875 5.640625 -11.71875 C 4.804688 -11.25 4.148438 -10.601562 3.671875 -9.78125 C 3.203125 -8.957031 2.96875 -8.035156 2.96875 -7.015625 C 2.96875 -6.003906 3.203125 -5.085938 3.671875 -4.265625 C 4.148438 -3.441406 4.804688 -2.796875 5.640625 -2.328125 C 6.484375 -1.859375 7.421875 -1.625 8.453125 -1.625 Z M 8.453125 -1.625 "/></g></g></g><g fill="#ffffff" fill-opacity="1"><g transform="translate(178.120164, 169.733542)"><g><path d="M 14.296875 -14.046875 L 8.140625 0 L 6.15625 0 L -0.015625 -14.046875 L 2.140625 -14.046875 L 7.203125 -2.5 L 12.296875 -14.046875 Z M 14.296875 -14.046875 "/></g></g></g><g fill="#ffffff" fill-opacity="1"><g transform="translate(208.459514, 169.733542)"><g><path d="M 8.453125 0.15625 C 7.023438 0.15625 5.742188 -0.148438 4.609375 -0.765625 C 3.472656 -1.390625 2.582031 -2.25 1.9375 -3.34375 C 1.289062 -4.445312 0.96875 -5.671875 0.96875 -7.015625 C 0.96875 -8.367188 1.289062 -9.59375 1.9375 -10.6875 C 2.582031 -11.789062 3.472656 -12.648438 4.609375 -13.265625 C 5.742188 -13.890625 7.023438 -14.203125 8.453125 -14.203125 C 9.847656 -14.203125 11.113281 -13.890625 12.25 -13.265625 C 13.394531 -12.648438 14.285156 -11.796875 14.921875 -10.703125 C 15.566406 -9.609375 15.890625 -8.378906 15.890625 -7.015625 C 15.890625 -5.648438 15.566406 -4.421875 14.921875 -3.328125 C 14.285156 -2.242188 13.394531 -1.390625 12.25 -0.765625 C 11.113281 -0.148438 9.847656 0.15625 8.453125 0.15625 Z M 8.453125 -1.625 C 9.472656 -1.625 10.394531 -1.859375 11.21875 -2.328125 C 12.039062 -2.796875 12.691406 -3.441406 13.171875 -4.265625 C 13.648438 -5.085938 13.890625 -6.003906 13.890625 -7.015625 C 13.890625 -8.035156 13.648438 -8.957031 13.171875 -9.78125 C 12.691406 -10.601562 12.039062 -11.25 11.21875 -11.71875 C 10.394531 -12.1875 9.472656 -12.421875 8.453125 -12.421875 C 7.421875 -12.421875 6.484375 -12.1875 5.640625 -11.71875 C 4.804688 -11.25 4.148438 -10.601562 3.671875 -9.78125 C 3.203125 -8.957031 2.96875 -8.035156 2.96875 -7.015625 C 2.96875 -6.003906 3.203125 -5.085938 3.671875 -4.265625 C 4.148438 -3.441406 4.804688 -2.796875 5.640625 -2.328125 C 6.484375 -1.859375 7.421875 -1.625 8.453125 -1.625 Z M 8.453125 -1.625 "/></g></g></g><g fill="#ffffff" fill-opacity="1"><g transform="translate(241.366872, 169.733542)"><g><path d="M 2.109375 -14.046875 L 8.03125 -14.046875 C 9.507812 -14.046875 10.820312 -13.75 11.96875 -13.15625 C 13.125 -12.570312 14.019531 -11.75 14.65625 -10.6875 C 15.289062 -9.625 15.609375 -8.398438 15.609375 -7.015625 C 15.609375 -5.640625 15.289062 -4.421875 14.65625 -3.359375 C 14.019531 -2.296875 13.125 -1.46875 11.96875 -0.875 C 10.820312 -0.289062 9.507812 0 8.03125 0 L 2.109375 0 Z M 7.90625 -1.75 C 9.039062 -1.75 10.039062 -1.96875 10.90625 -2.40625 C 11.769531 -2.84375 12.4375 -3.457031 12.90625 -4.25 C 13.375 -5.050781 13.609375 -5.972656 13.609375 -7.015625 C 13.609375 -8.066406 13.375 -8.988281 12.90625 -9.78125 C 12.4375 -10.570312 11.769531 -11.1875 10.90625 -11.625 C 10.039062 -12.070312 9.039062 -12.296875 7.90625 -12.296875 L 4.109375 -12.296875 L 4.109375 -1.75 Z M 7.90625 -1.75 "/></g></g></g><g fill="#ffffff" fill-opacity="1"><g transform="translate(273.993346, 169.733542)"><g><path d="M 6.6875 -6.234375 L 4.109375 -3.625 L 4.109375 0 L 2.109375 0 L 2.109375 -14.046875 L 4.109375 -14.046875 L 4.109375 -6.203125 L 11.734375 -14.046875 L 14.03125 -14.046875 L 8.03125 -7.71875 L 14.40625 0 L 12.0625 0 Z M 6.6875 -6.234375 "/></g></g></g><g fill="#ffffff" fill-opacity="1"><g transform="translate(304.473126, 169.733542)"><g><path d="M 11.046875 -3.515625 L 3.59375 -3.515625 L 2.046875 0 L -0.015625 0 L 6.34375 -14.046875 L 8.328125 -14.046875 L 14.703125 0 L 12.59375 0 Z M 10.359375 -5.109375 L 7.328125 -12 L 4.296875 -5.109375 Z M 10.359375 -5.109375 "/></g></g></g><path stroke-linecap="butt" transform="matrix(0.75, 0, 0, 0.75, 127.499996, 187.124988)" fill="none" stroke-linejoin="miter" d="M 0.00000516333 0.500016 L 160.000016 0.500016 " stroke="#ffffff" stroke-width="1" stroke-opacity="1" stroke-miterlimit="4"/><g fill="#ffffff" fill-opacity="1"><g transform="translate(147.097754, 214.118132)"><g><path d="M 8.671875 -5.46875 C 9.285156 -5.300781 9.769531 -4.992188 10.125 -4.546875 C 10.476562 -4.097656 10.65625 -3.53125 10.65625 -2.84375 C 10.65625 -1.925781 10.304688 -1.222656 9.609375 -0.734375 C 8.921875 -0.242188 7.921875 0 6.609375 0 L 1.578125 0 L 1.578125 -10.546875 L 6.3125 -10.546875 C 7.519531 -10.546875 8.453125 -10.300781 9.109375 -9.8125 C 9.765625 -9.332031 10.09375 -8.664062 10.09375 -7.8125 C 10.09375 -7.257812 9.960938 -6.78125 9.703125 -6.375 C 9.453125 -5.976562 9.109375 -5.675781 8.671875 -5.46875 Z M 3.09375 -9.328125 L 3.09375 -5.953125 L 6.171875 -5.953125 C 6.941406 -5.953125 7.535156 -6.09375 7.953125 -6.375 C 8.367188 -6.664062 8.578125 -7.085938 8.578125 -7.640625 C 8.578125 -8.191406 8.367188 -8.609375 7.953125 -8.890625 C 7.535156 -9.179688 6.941406 -9.328125 6.171875 -9.328125 Z M 6.546875 -1.21875 C 7.398438 -1.21875 8.039062 -1.359375 8.46875 -1.640625 C 8.90625 -1.921875 9.125 -2.363281 9.125 -2.96875 C 9.125 -4.144531 8.265625 -4.734375 6.546875 -4.734375 L 3.09375 -4.734375 L 3.09375 -1.21875 Z M 6.546875 -1.21875 "/></g></g></g><g fill="#ffffff" fill-opacity="1"><g transform="translate(170.552043, 214.118132)"><g><path d="M 1.578125 -10.546875 L 3.09375 -10.546875 L 3.09375 -1.3125 L 8.796875 -1.3125 L 8.796875 0 L 1.578125 0 Z M 1.578125 -10.546875 "/></g></g></g><g fill="#ffffff" fill-opacity="1"><g transform="translate(191.55177, 214.118132)"><g><path d="M 6.34375 0.125 C 5.28125 0.125 4.320312 -0.109375 3.46875 -0.578125 C 2.613281 -1.046875 1.941406 -1.691406 1.453125 -2.515625 C 0.960938 -3.335938 0.71875 -4.253906 0.71875 -5.265625 C 0.71875 -6.285156 0.960938 -7.207031 1.453125 -8.03125 C 1.941406 -8.851562 2.613281 -9.5 3.46875 -9.96875 C 4.320312 -10.4375 5.28125 -10.671875 6.34375 -10.671875 C 7.394531 -10.671875 8.347656 -10.4375 9.203125 -9.96875 C 10.054688 -9.5 10.722656 -8.851562 11.203125 -8.03125 C 11.679688 -7.21875 11.921875 -6.296875 11.921875 -5.265625 C 11.921875 -4.242188 11.679688 -3.320312 11.203125 -2.5 C 10.722656 -1.6875 10.054688 -1.046875 9.203125 -0.578125 C 8.347656 -0.109375 7.394531 0.125 6.34375 0.125 Z M 6.34375 -1.21875 C 7.113281 -1.21875 7.804688 -1.394531 8.421875 -1.75 C 9.046875 -2.101562 9.535156 -2.585938 9.890625 -3.203125 C 10.242188 -3.816406 10.421875 -4.503906 10.421875 -5.265625 C 10.421875 -6.035156 10.242188 -6.726562 9.890625 -7.34375 C 9.535156 -7.957031 9.046875 -8.441406 8.421875 -8.796875 C 7.804688 -9.148438 7.113281 -9.328125 6.34375 -9.328125 C 5.570312 -9.328125 4.867188 -9.148438 4.234375 -8.796875 C 3.609375 -8.441406 3.117188 -7.957031 2.765625 -7.34375 C 2.410156 -6.726562 2.234375 -6.035156 2.234375 -5.265625 C 2.234375 -4.503906 2.410156 -3.816406 2.765625 -3.203125 C 3.117188 -2.585938 3.609375 -2.101562 4.234375 -1.75 C 4.867188 -1.394531 5.570312 -1.21875 6.34375 -1.21875 Z M 6.34375 -1.21875 "/></g></g></g><g fill="#ffffff" fill-opacity="1"><g transform="translate(216.255929, 214.118132)"><g><path d="M 8.890625 -5.328125 L 10.328125 -5.328125 L 10.328125 -1.21875 C 9.804688 -0.789062 9.195312 -0.457031 8.5 -0.21875 C 7.8125 0.0078125 7.09375 0.125 6.34375 0.125 C 5.28125 0.125 4.320312 -0.109375 3.46875 -0.578125 C 2.613281 -1.046875 1.941406 -1.6875 1.453125 -2.5 C 0.960938 -3.320312 0.71875 -4.242188 0.71875 -5.265625 C 0.71875 -6.296875 0.960938 -7.222656 1.453125 -8.046875 C 1.941406 -8.867188 2.613281 -9.507812 3.46875 -9.96875 C 4.332031 -10.4375 5.300781 -10.671875 6.375 -10.671875 C 7.21875 -10.671875 7.984375 -10.53125 8.671875 -10.25 C 9.359375 -9.96875 9.941406 -9.5625 10.421875 -9.03125 L 9.484375 -8.109375 C 8.640625 -8.921875 7.625 -9.328125 6.4375 -9.328125 C 5.632812 -9.328125 4.910156 -9.148438 4.265625 -8.796875 C 3.628906 -8.453125 3.128906 -7.972656 2.765625 -7.359375 C 2.410156 -6.742188 2.234375 -6.046875 2.234375 -5.265625 C 2.234375 -4.503906 2.410156 -3.816406 2.765625 -3.203125 C 3.128906 -2.585938 3.628906 -2.101562 4.265625 -1.75 C 4.910156 -1.394531 5.628906 -1.21875 6.421875 -1.21875 C 7.359375 -1.21875 8.179688 -1.441406 8.890625 -1.890625 Z M 8.890625 -5.328125 "/></g></g></g></svg>